<svg xmlns="http://www.w3.org/2000/svg" xmlns:xlink="http://www.w3.org/1999/xlink" width="500" zoomAndPan="magnify" viewBox="0 0 375 374.999991" height="500" preserveAspectRatio="xMidYMid meet" version="1.0"><defs><g/><clipPath id="0350097d23"><path d="M 144 30 L 218.71875 30 L 218.71875 91 L 144 91 Z M 144 30 " clip-rule="nonzero"/></clipPath><clipPath id="cd940f9d4e"><rect x="0" width="219" y="0" height="111"/></clipPath></defs><rect x="-37.5" width="450" fill="#ffffff" y="-37.499999" height="449.999989" fill-opacity="1"/><rect x="-37.5" width="450" fill="#ff914d" y="-37.499999" height="449.999989" fill-opacity="1"/><g transform="matrix(1, 0, 0, 1, 82, 94)"><g clip-path="url(#cd940f9d4e)"><g fill="#004f20" fill-opacity="1"><g transform="translate(0.81846, 87.281465)"><g><path d="M 15.273438 -41.667969 L 20.695312 -56.605469 L 90.808594 -56.605469 L 83.886719 -37.53125 L 59.609375 -37.53125 L 59.609375 -40.617188 L 62.507812 -39.566406 L 50.257812 -5.773438 C 49.40625 -3.566406 47.96875 -1.957031 45.941406 -0.941406 L 40.050781 2.085938 L 38.640625 -0.65625 L 40.257812 1.96875 C 39.050781 2.710938 37.714844 3.082031 36.257812 3.082031 L 21.171875 3.082031 L 37.386719 -41.664062 L 40.285156 -40.617188 L 40.285156 -37.53125 L 13.769531 -37.53125 Z M 21.066406 -39.5625 L 18.171875 -40.617188 L 18.171875 -43.699219 L 44.683594 -43.699219 L 28.46875 1.050781 L 25.570312 0 L 25.570312 -3.082031 L 36.257812 -3.082031 C 36.554688 -3.082031 36.808594 -3.148438 37.027344 -3.285156 L 37.128906 -3.347656 L 43.183594 -6.457031 C 43.785156 -6.757812 44.210938 -7.230469 44.457031 -7.875 L 57.445312 -43.699219 L 81.722656 -43.699219 L 81.722656 -40.617188 L 78.828125 -41.667969 L 83.511719 -54.574219 L 86.410156 -53.523438 L 86.410156 -50.441406 L 22.855469 -50.441406 L 22.855469 -53.523438 L 25.753906 -52.472656 Z M 21.066406 -39.5625 "/></g></g></g><g fill="#004f20" fill-opacity="1"><g transform="translate(71.273896, 87.281465)"><g><path d="M 89.882812 -52.472656 L 84.460938 -37.53125 L 43.246094 -37.53125 C 42.851562 -37.53125 42.375 -37.335938 41.808594 -36.9375 C 41.230469 -36.535156 40.832031 -36.050781 40.621094 -35.488281 L 33.480469 -15.882812 C 33.445312 -15.773438 33.425781 -15.707031 33.429688 -15.671875 C 33.425781 -15.742188 33.40625 -15.800781 33.371094 -15.851562 C 33.328125 -15.914062 33.265625 -15.960938 33.1875 -16 L 33.175781 -16.007812 C 33.226562 -15.996094 33.292969 -15.992188 33.378906 -15.992188 L 50.070312 -15.992188 C 50.527344 -15.992188 51 -16.179688 51.488281 -16.550781 C 52.039062 -16.972656 52.40625 -17.441406 52.585938 -17.957031 L 54.664062 -23.523438 L 57.550781 -22.445312 L 57.550781 -19.363281 L 41.730469 -19.363281 L 48.152344 -37.121094 L 70.378906 -37.121094 C 71.125 -37.121094 71.839844 -37.035156 72.523438 -36.863281 C 73.8125 -36.542969 74.785156 -35.808594 75.441406 -34.664062 L 72.761719 -33.132812 L 74.699219 -35.53125 L 78.976562 -32.078125 L 77.039062 -29.679688 L 78.851562 -32.175781 C 80.128906 -31.246094 80.90625 -29.972656 81.1875 -28.355469 C 81.40625 -27.070312 81.308594 -25.753906 80.886719 -24.402344 L 80.863281 -24.335938 L 76.398438 -12.097656 L 73.503906 -13.15625 L 76.425781 -12.179688 C 75.917969 -10.648438 75.050781 -9.167969 73.832031 -7.742188 C 72.578125 -6.273438 71.089844 -5.140625 69.359375 -4.351562 L 68.078125 -7.152344 L 69.488281 -4.410156 L 57.976562 1.507812 L 56.566406 -1.234375 L 58.09375 1.445312 C 57.089844 2.019531 56.085938 2.4375 55.078125 2.695312 C 54.085938 2.953125 53.074219 3.082031 52.042969 3.082031 L 21.871094 3.082031 C 19.277344 3.082031 17.292969 2.34375 15.917969 0.871094 L 18.171875 -1.234375 L 16.230469 1.164062 L 8.789062 -4.859375 L 8.671875 -4.972656 C 7.464844 -6.179688 6.746094 -7.667969 6.519531 -9.433594 C 6.324219 -10.96875 6.492188 -12.535156 7.023438 -14.128906 L 7.035156 -14.171875 L 16.09375 -39.039062 C 18.273438 -45.074219 21.957031 -49.539062 27.152344 -52.433594 C 32.140625 -55.214844 37.972656 -56.605469 44.644531 -56.605469 L 91.386719 -56.605469 Z M 84.089844 -54.574219 L 86.988281 -53.523438 L 86.988281 -50.441406 L 44.644531 -50.441406 C 39.039062 -50.441406 34.210938 -49.308594 30.15625 -47.046875 C 26.304688 -44.902344 23.550781 -41.527344 21.890625 -36.929688 L 12.84375 -12.101562 L 9.949219 -13.15625 L 12.875 -12.179688 C 12.636719 -11.472656 12.558594 -10.820312 12.636719 -10.21875 C 12.683594 -9.84375 12.816406 -9.550781 13.03125 -9.332031 L 10.851562 -7.152344 L 12.792969 -9.550781 L 20.277344 -3.496094 L 20.425781 -3.335938 C 20.449219 -3.308594 20.523438 -3.273438 20.644531 -3.234375 C 20.945312 -3.132812 21.355469 -3.082031 21.871094 -3.082031 L 52.042969 -3.082031 C 52.550781 -3.082031 53.042969 -3.144531 53.53125 -3.273438 C 54.003906 -3.394531 54.507812 -3.609375 55.035156 -3.910156 L 55.09375 -3.945312 L 66.726562 -9.925781 L 66.792969 -9.957031 C 67.695312 -10.371094 68.480469 -10.964844 69.144531 -11.746094 C 69.84375 -12.5625 70.320312 -13.359375 70.578125 -14.128906 L 70.589844 -14.171875 L 75.046875 -26.378906 L 77.941406 -25.324219 L 75 -26.242188 C 75.125 -26.644531 75.164062 -27 75.109375 -27.308594 L 75.125 -27.304688 C 75.152344 -27.253906 75.1875 -27.214844 75.222656 -27.1875 L 75.160156 -27.234375 L 70.375 -31.101562 L 70.085938 -31.605469 C 70.300781 -31.226562 70.617188 -30.984375 71.027344 -30.882812 C 70.835938 -30.929688 70.617188 -30.953125 70.378906 -30.953125 L 50.316406 -30.953125 L 50.316406 -34.039062 L 53.214844 -32.988281 L 49.023438 -21.398438 L 46.125 -22.445312 L 46.125 -25.527344 L 61.992188 -25.527344 L 58.40625 -15.917969 C 57.820312 -14.242188 56.761719 -12.816406 55.230469 -11.648438 C 53.636719 -10.433594 51.917969 -9.824219 50.070312 -9.824219 L 33.378906 -9.824219 C 32.347656 -9.824219 31.414062 -10.019531 30.574219 -10.414062 C 29.644531 -10.847656 28.882812 -11.492188 28.292969 -12.351562 C 27.152344 -14.003906 26.949219 -15.886719 27.6875 -17.992188 L 34.855469 -37.683594 C 35.519531 -39.425781 36.660156 -40.859375 38.273438 -41.992188 C 39.898438 -43.128906 41.558594 -43.699219 43.246094 -43.699219 L 82.300781 -43.699219 L 82.300781 -40.617188 L 79.402344 -41.667969 Z M 84.089844 -54.574219 "/></g></g></g><g clip-path="url(#0350097d23)"><g fill="#004f20" fill-opacity="1"><g transform="translate(144.853375, 87.281465)"><g><path d="M 45.714844 -37.53125 L 25.035156 -37.53125 L 31.960938 -56.605469 L 74.117188 -56.605469 L 57.984375 -12.105469 L 55.085938 -13.15625 L 58.011719 -12.179688 C 57.492188 -10.625 56.609375 -9.152344 55.367188 -7.765625 C 54.183594 -6.445312 52.8125 -5.347656 51.257812 -4.46875 L 51.203125 -4.4375 L 39.550781 1.511719 L 38.148438 -1.234375 L 39.765625 1.394531 C 38.78125 1.996094 37.753906 2.433594 36.675781 2.703125 C 35.664062 2.957031 34.648438 3.082031 33.628906 3.082031 L -0.0429688 3.082031 L 6.882812 -15.992188 L 31.488281 -15.992188 C 31.972656 -15.992188 32.492188 -16.191406 33.050781 -16.597656 C 33.625 -17.011719 34 -17.464844 34.171875 -17.957031 L 42.816406 -41.671875 L 45.714844 -40.617188 Z M 50.117188 -43.699219 L 39.992188 -15.917969 C 39.394531 -14.214844 38.289062 -12.777344 36.671875 -11.605469 C 35.035156 -10.417969 33.308594 -9.824219 31.488281 -9.824219 L 9.042969 -9.824219 L 9.042969 -12.90625 L 11.941406 -11.855469 L 7.253906 1.050781 L 4.359375 0 L 4.359375 -3.082031 L 33.628906 -3.082031 C 34.140625 -3.082031 34.660156 -3.148438 35.179688 -3.277344 C 35.640625 -3.394531 36.089844 -3.585938 36.53125 -3.859375 L 36.636719 -3.921875 L 48.339844 -9.898438 L 49.742188 -7.152344 L 48.222656 -9.835938 C 49.191406 -10.382812 50.042969 -11.066406 50.777344 -11.882812 C 51.449219 -12.636719 51.914062 -13.382812 52.160156 -14.128906 L 52.171875 -14.167969 L 66.820312 -54.574219 L 69.71875 -53.523438 L 69.71875 -50.441406 L 34.121094 -50.441406 L 34.121094 -53.523438 L 37.019531 -52.472656 L 32.332031 -39.5625 L 29.433594 -40.617188 L 29.433594 -43.699219 Z M 50.117188 -43.699219 "/></g></g></g></g><g fill="#c1ff72" fill-opacity="1"><g transform="translate(0.81846, 87.281465)"><g><path d="M 18.171875 -40.609375 L 22.859375 -53.53125 L 86.40625 -53.53125 L 81.71875 -40.609375 L 59.609375 -40.609375 L 47.359375 -6.828125 C 46.804688 -5.398438 45.875 -4.359375 44.5625 -3.703125 L 38.640625 -0.65625 C 37.929688 -0.21875 37.140625 0 36.265625 0 L 25.5625 0 L 40.28125 -40.609375 Z M 18.171875 -40.609375 "/></g></g></g><g fill="#c1ff72" fill-opacity="1"><g transform="translate(71.273896, 87.281465)"><g><path d="M 86.984375 -53.53125 L 82.296875 -40.609375 L 43.25 -40.609375 C 42.207031 -40.609375 41.132812 -40.222656 40.03125 -39.453125 C 38.9375 -38.691406 38.171875 -37.738281 37.734375 -36.59375 L 30.578125 -16.9375 C 30.203125 -15.84375 30.285156 -14.894531 30.828125 -14.09375 C 31.378906 -13.300781 32.226562 -12.90625 33.375 -12.90625 L 50.078125 -12.90625 C 51.222656 -12.90625 52.316406 -13.300781 53.359375 -14.09375 C 54.398438 -14.894531 55.113281 -15.84375 55.5 -16.9375 L 57.546875 -22.453125 L 46.125 -22.453125 L 50.3125 -34.03125 L 70.375 -34.03125 C 70.875 -34.03125 71.34375 -33.972656 71.78125 -33.859375 C 72.21875 -33.753906 72.546875 -33.515625 72.765625 -33.140625 L 77.03125 -29.6875 C 77.632812 -29.238281 78.003906 -28.617188 78.140625 -27.828125 C 78.285156 -27.035156 78.21875 -26.203125 77.9375 -25.328125 L 73.5 -13.15625 C 73.113281 -12 72.441406 -10.859375 71.484375 -9.734375 C 70.523438 -8.617188 69.390625 -7.757812 68.078125 -7.15625 L 56.5625 -1.234375 C 55.800781 -0.796875 55.050781 -0.476562 54.3125 -0.28125 C 53.570312 -0.09375 52.816406 0 52.046875 0 L 21.875 0 C 20.175781 0 18.941406 -0.410156 18.171875 -1.234375 L 10.859375 -7.15625 C 10.140625 -7.863281 9.710938 -8.75 9.578125 -9.8125 C 9.441406 -10.882812 9.566406 -12 9.953125 -13.15625 L 19 -37.984375 C 20.914062 -43.296875 24.132812 -47.210938 28.65625 -49.734375 C 33.175781 -52.265625 38.503906 -53.53125 44.640625 -53.53125 Z M 86.984375 -53.53125 "/></g></g></g><g fill="#c1ff72" fill-opacity="1"><g transform="translate(144.853375, 87.281465)"><g><path d="M 45.71875 -40.609375 L 29.4375 -40.609375 L 34.125 -53.53125 L 69.71875 -53.53125 L 55.09375 -13.15625 C 54.707031 -12 54.035156 -10.882812 53.078125 -9.8125 C 52.117188 -8.75 51.007812 -7.863281 49.75 -7.15625 L 38.15625 -1.234375 C 37.4375 -0.796875 36.691406 -0.476562 35.921875 -0.28125 C 35.160156 -0.09375 34.394531 0 33.625 0 L 4.359375 0 L 9.046875 -12.90625 L 31.484375 -12.90625 C 32.640625 -12.90625 33.765625 -13.300781 34.859375 -14.09375 C 35.953125 -14.894531 36.691406 -15.84375 37.078125 -16.9375 Z M 45.71875 -40.609375 "/></g></g></g></g></g><g fill="#c1ff72" fill-opacity="1"><g transform="translate(116.732392, 222.969477)"><g><path d="M 3.921875 -2.015625 L 3.921875 -10.1875 L 2.515625 -10.1875 C 2.242188 -10.1875 2.109375 -10 2.109375 -9.625 L 2.109375 -8.78125 L 0.265625 -8.90625 L 0.265625 -11.96875 L 9.6875 -11.96875 L 9.6875 -8.90625 L 7.84375 -8.78125 L 7.84375 -9.625 C 7.84375 -9.832031 7.8125 -9.976562 7.75 -10.0625 C 7.695312 -10.144531 7.554688 -10.1875 7.328125 -10.1875 L 6.109375 -10.1875 L 6.109375 -1.578125 L 7.53125 -1.53125 L 7.53125 0 L 2.453125 0 L 2.453125 -1.453125 L 3.40625 -1.515625 C 3.75 -1.546875 3.921875 -1.710938 3.921875 -2.015625 Z M 3.921875 -2.015625 "/></g></g></g><g fill="#c1ff72" fill-opacity="1"><g transform="translate(131.366374, 222.969477)"><g><path d="M 6.21875 -12.1875 C 7.644531 -12.1875 8.835938 -11.679688 9.796875 -10.671875 C 10.753906 -9.660156 11.234375 -8.117188 11.234375 -6.046875 C 11.234375 -3.984375 10.753906 -2.421875 9.796875 -1.359375 C 8.847656 -0.296875 7.554688 0.234375 5.921875 0.234375 C 4.296875 0.234375 3.019531 -0.289062 2.09375 -1.34375 C 1.175781 -2.40625 0.71875 -3.941406 0.71875 -5.953125 C 0.71875 -7.054688 0.878906 -8.023438 1.203125 -8.859375 C 1.523438 -9.691406 1.953125 -10.335938 2.484375 -10.796875 C 3.554688 -11.722656 4.800781 -12.1875 6.21875 -12.1875 Z M 2.96875 -6.046875 C 2.96875 -3.066406 4 -1.578125 6.0625 -1.578125 C 7.164062 -1.578125 7.941406 -2.035156 8.390625 -2.953125 C 8.796875 -3.753906 9 -4.738281 9 -5.90625 C 9 -6.945312 8.816406 -7.90625 8.453125 -8.78125 C 8.253906 -9.257812 7.945312 -9.632812 7.53125 -9.90625 C 7.113281 -10.1875 6.578125 -10.328125 5.921875 -10.328125 C 5.265625 -10.328125 4.695312 -10.109375 4.21875 -9.671875 C 3.75 -9.242188 3.421875 -8.722656 3.234375 -8.109375 C 3.054688 -7.503906 2.96875 -6.816406 2.96875 -6.046875 Z M 2.96875 -6.046875 "/></g></g></g><g fill="#c1ff72" fill-opacity="1"><g transform="translate(147.998358, 222.969477)"><g><path d="M 3.625 -9.859375 L 3.625 -3.890625 C 3.625 -3.046875 3.820312 -2.453125 4.21875 -2.109375 C 4.625 -1.773438 5.203125 -1.609375 5.953125 -1.609375 C 6.703125 -1.609375 7.28125 -1.789062 7.6875 -2.15625 C 8.101562 -2.53125 8.3125 -3.078125 8.3125 -3.796875 L 8.3125 -10.390625 L 7.265625 -10.4375 L 7.265625 -11.96875 L 11.53125 -11.96875 L 11.53125 -10.515625 L 10.9375 -10.453125 C 10.59375 -10.421875 10.421875 -10.242188 10.421875 -9.921875 L 10.421875 -3.484375 C 10.421875 -2.328125 10.007812 -1.414062 9.1875 -0.75 C 8.375 -0.09375 7.25 0.234375 5.8125 0.234375 C 4.375 0.234375 3.285156 -0.0820312 2.546875 -0.71875 C 1.804688 -1.363281 1.4375 -2.382812 1.4375 -3.78125 L 1.4375 -10.390625 L 0.390625 -10.4375 L 0.390625 -11.96875 L 4.75 -11.96875 L 4.75 -10.515625 L 4.15625 -10.453125 C 3.96875 -10.429688 3.832031 -10.378906 3.75 -10.296875 C 3.664062 -10.222656 3.625 -10.078125 3.625 -9.859375 Z M 3.625 -9.859375 "/></g></g></g><g fill="#c1ff72" fill-opacity="1"><g transform="translate(164.540334, 222.969477)"><g><path d="M 0.578125 0 L 0.578125 -1.453125 L 1.171875 -1.515625 C 1.515625 -1.546875 1.6875 -1.710938 1.6875 -2.015625 L 1.6875 -10.390625 L 0.671875 -10.4375 L 0.671875 -11.96875 L 5.578125 -11.96875 C 6.972656 -11.96875 8.039062 -11.707031 8.78125 -11.1875 C 9.53125 -10.675781 9.90625 -9.832031 9.90625 -8.65625 C 9.90625 -7.84375 9.691406 -7.171875 9.265625 -6.640625 C 8.835938 -6.109375 8.328125 -5.722656 7.734375 -5.484375 C 8.171875 -5.328125 8.515625 -4.960938 8.765625 -4.390625 L 10.0625 -1.5625 L 11.09375 -1.53125 L 11.09375 0 L 6.640625 0 L 6.640625 -1.453125 L 7.15625 -1.515625 C 7.4375 -1.546875 7.578125 -1.65625 7.578125 -1.84375 C 7.578125 -1.90625 7.550781 -1.988281 7.5 -2.09375 L 6.65625 -3.890625 C 6.53125 -4.191406 6.382812 -4.40625 6.21875 -4.53125 C 6.050781 -4.65625 5.820312 -4.71875 5.53125 -4.71875 L 3.890625 -4.71875 L 3.890625 -1.578125 L 5.0625 -1.53125 L 5.0625 0 Z M 3.890625 -6.421875 L 5.453125 -6.421875 C 6.929688 -6.421875 7.671875 -7.082031 7.671875 -8.40625 C 7.671875 -9.164062 7.472656 -9.65625 7.078125 -9.875 C 6.691406 -10.101562 6.066406 -10.21875 5.203125 -10.21875 L 3.890625 -10.21875 Z M 3.890625 -6.421875 "/></g></g></g><g fill="#c1ff72" fill-opacity="1"><g transform="translate(180.488315, 222.969477)"><g/></g></g><g fill="#c1ff72" fill-opacity="1"><g transform="translate(188.768321, 222.969477)"><g><path d="M 10.15625 -4.1875 L 10.15625 -0.9375 C 9.039062 -0.164062 7.65625 0.21875 6 0.21875 C 4.34375 0.21875 3.046875 -0.296875 2.109375 -1.328125 C 1.179688 -2.367188 0.71875 -3.910156 0.71875 -5.953125 C 0.71875 -6.859375 0.832031 -7.671875 1.0625 -8.390625 C 1.300781 -9.109375 1.609375 -9.703125 1.984375 -10.171875 C 2.367188 -10.640625 2.8125 -11.03125 3.3125 -11.34375 C 4.269531 -11.90625 5.359375 -12.1875 6.578125 -12.1875 C 7.796875 -12.1875 8.929688 -11.941406 9.984375 -11.453125 L 9.984375 -8.390625 L 8.15625 -8.265625 L 8.15625 -9.671875 C 8.15625 -9.847656 8.128906 -9.976562 8.078125 -10.0625 C 7.953125 -10.289062 7.40625 -10.40625 6.4375 -10.40625 C 4.125 -10.40625 2.96875 -8.972656 2.96875 -6.109375 C 2.96875 -3.078125 4.015625 -1.5625 6.109375 -1.5625 C 6.929688 -1.5625 7.566406 -1.707031 8.015625 -2 L 8.015625 -4.6875 L 7.984375 -4.6875 L 6.609375 -4.734375 L 6.609375 -6.265625 L 11.09375 -6.265625 L 11.09375 -4.828125 L 10.671875 -4.78125 C 10.484375 -4.757812 10.347656 -4.707031 10.265625 -4.625 C 10.191406 -4.550781 10.15625 -4.40625 10.15625 -4.1875 Z M 10.15625 -4.1875 "/></g></g></g><g fill="#c1ff72" fill-opacity="1"><g transform="translate(204.986304, 222.969477)"><g><path d="M 3.625 -9.859375 L 3.625 -3.890625 C 3.625 -3.046875 3.820312 -2.453125 4.21875 -2.109375 C 4.625 -1.773438 5.203125 -1.609375 5.953125 -1.609375 C 6.703125 -1.609375 7.28125 -1.789062 7.6875 -2.15625 C 8.101562 -2.53125 8.3125 -3.078125 8.3125 -3.796875 L 8.3125 -10.390625 L 7.265625 -10.4375 L 7.265625 -11.96875 L 11.53125 -11.96875 L 11.53125 -10.515625 L 10.9375 -10.453125 C 10.59375 -10.421875 10.421875 -10.242188 10.421875 -9.921875 L 10.421875 -3.484375 C 10.421875 -2.328125 10.007812 -1.414062 9.1875 -0.75 C 8.375 -0.09375 7.25 0.234375 5.8125 0.234375 C 4.375 0.234375 3.285156 -0.0820312 2.546875 -0.71875 C 1.804688 -1.363281 1.4375 -2.382812 1.4375 -3.78125 L 1.4375 -10.390625 L 0.390625 -10.4375 L 0.390625 -11.96875 L 4.75 -11.96875 L 4.75 -10.515625 L 4.15625 -10.453125 C 3.96875 -10.429688 3.832031 -10.378906 3.75 -10.296875 C 3.664062 -10.222656 3.625 -10.078125 3.625 -9.859375 Z M 3.625 -9.859375 "/></g></g></g><g fill="#c1ff72" fill-opacity="1"><g transform="translate(221.528279, 222.969477)"><g><path d="M 1.6875 -2.109375 L 1.6875 -10.390625 L 0.671875 -10.4375 L 0.671875 -11.96875 L 5.015625 -11.96875 L 5.015625 -10.515625 L 4.421875 -10.453125 C 4.078125 -10.421875 3.90625 -10.226562 3.90625 -9.875 L 3.90625 -1.578125 L 4.9375 -1.53125 L 4.9375 0 L 0.578125 0 L 0.578125 -1.453125 L 1.171875 -1.515625 C 1.347656 -1.535156 1.476562 -1.582031 1.5625 -1.65625 C 1.644531 -1.738281 1.6875 -1.890625 1.6875 -2.109375 Z M 1.6875 -2.109375 "/></g></g></g><g fill="#c1ff72" fill-opacity="1"><g transform="translate(231.73428, 222.969477)"><g><path d="M 0.609375 0 L 0.609375 -1.453125 L 1.203125 -1.515625 C 1.554688 -1.546875 1.734375 -1.710938 1.734375 -2.015625 L 1.734375 -10.390625 L 0.703125 -10.4375 L 0.703125 -11.96875 L 5.640625 -11.96875 C 7.398438 -11.96875 8.773438 -11.5 9.765625 -10.5625 C 10.753906 -9.625 11.25 -8.238281 11.25 -6.40625 C 11.25 -5.269531 11.097656 -4.273438 10.796875 -3.421875 C 10.492188 -2.578125 10.085938 -1.914062 9.578125 -1.4375 C 8.546875 -0.476562 7.257812 0 5.71875 0 Z M 3.921875 -10.21875 L 3.921875 -1.734375 L 5.765625 -1.734375 C 6.796875 -1.734375 7.597656 -2.101562 8.171875 -2.84375 C 8.742188 -3.582031 9.03125 -4.660156 9.03125 -6.078125 C 9.03125 -8.835938 7.863281 -10.21875 5.53125 -10.21875 Z M 3.921875 -10.21875 "/></g></g></g><g fill="#c1ff72" fill-opacity="1"><g transform="translate(248.384253, 222.969477)"><g><path d="M 9.15625 0 L 0.609375 0 L 0.609375 -1.453125 L 1.203125 -1.515625 C 1.554688 -1.546875 1.734375 -1.710938 1.734375 -2.015625 L 1.734375 -10.390625 L 0.703125 -10.4375 L 0.703125 -11.96875 L 8.953125 -11.96875 L 8.953125 -8.984375 L 7.109375 -8.859375 L 7.109375 -9.578125 C 7.109375 -9.773438 7.078125 -9.914062 7.015625 -10 C 6.960938 -10.09375 6.820312 -10.140625 6.59375 -10.140625 L 3.921875 -10.140625 L 3.921875 -7.0625 L 8.078125 -7.0625 L 8.078125 -5.21875 L 3.921875 -5.21875 L 3.921875 -1.859375 L 6.828125 -1.859375 C 7.035156 -1.859375 7.171875 -1.898438 7.234375 -1.984375 C 7.296875 -2.078125 7.328125 -2.226562 7.328125 -2.4375 L 7.328125 -3.328125 L 9.15625 -3.203125 Z M 9.15625 0 "/></g></g></g><g fill="#c1ff72" fill-opacity="1"><g transform="translate(159.353483, 247.719476)"><g><path d="M 7.078125 -2.40625 C 6.867188 -0.644531 5.6875 0.234375 3.53125 0.234375 C 2.40625 0.234375 1.394531 -0.015625 0.5 -0.515625 L 0.5 -3.671875 L 2.34375 -3.796875 L 2.34375 -2.375 C 2.34375 -2.195312 2.363281 -2.066406 2.40625 -1.984375 C 2.457031 -1.898438 2.582031 -1.816406 2.78125 -1.734375 C 2.988281 -1.660156 3.304688 -1.625 3.734375 -1.625 C 4.160156 -1.625 4.46875 -1.75 4.65625 -2 C 4.851562 -2.257812 4.953125 -2.679688 4.953125 -3.265625 L 4.953125 -10.375 L 3.546875 -10.4375 L 3.546875 -11.96875 L 8.265625 -11.96875 L 8.265625 -10.515625 L 7.671875 -10.453125 C 7.316406 -10.421875 7.140625 -10.238281 7.140625 -9.90625 L 7.140625 -4.296875 C 7.140625 -3.453125 7.117188 -2.820312 7.078125 -2.40625 Z M 7.078125 -2.40625 "/></g></g></g><g fill="#c1ff72" fill-opacity="1"><g transform="translate(172.565468, 247.719476)"><g><path d="M 3.625 -9.859375 L 3.625 -3.890625 C 3.625 -3.046875 3.820312 -2.453125 4.21875 -2.109375 C 4.625 -1.773438 5.203125 -1.609375 5.953125 -1.609375 C 6.703125 -1.609375 7.28125 -1.789062 7.6875 -2.15625 C 8.101562 -2.53125 8.3125 -3.078125 8.3125 -3.796875 L 8.3125 -10.390625 L 7.265625 -10.4375 L 7.265625 -11.96875 L 11.53125 -11.96875 L 11.53125 -10.515625 L 10.9375 -10.453125 C 10.59375 -10.421875 10.421875 -10.242188 10.421875 -9.921875 L 10.421875 -3.484375 C 10.421875 -2.328125 10.007812 -1.414062 9.1875 -0.75 C 8.375 -0.09375 7.25 0.234375 5.8125 0.234375 C 4.375 0.234375 3.285156 -0.0820312 2.546875 -0.71875 C 1.804688 -1.363281 1.4375 -2.382812 1.4375 -3.78125 L 1.4375 -10.390625 L 0.390625 -10.4375 L 0.390625 -11.96875 L 4.75 -11.96875 L 4.75 -10.515625 L 4.15625 -10.453125 C 3.96875 -10.429688 3.832031 -10.378906 3.75 -10.296875 C 3.664062 -10.222656 3.625 -10.078125 3.625 -9.859375 Z M 3.625 -9.859375 "/></g></g></g><g fill="#c1ff72" fill-opacity="1"><g transform="translate(189.107444, 247.719476)"><g><path d="M 0.609375 0 L 0.609375 -1.453125 L 1.203125 -1.515625 C 1.554688 -1.546875 1.734375 -1.710938 1.734375 -2.015625 L 1.734375 -10.390625 L 0.703125 -10.4375 L 0.703125 -11.96875 L 5.640625 -11.96875 C 7.398438 -11.96875 8.773438 -11.5 9.765625 -10.5625 C 10.753906 -9.625 11.25 -8.238281 11.25 -6.40625 C 11.25 -5.269531 11.097656 -4.273438 10.796875 -3.421875 C 10.492188 -2.578125 10.085938 -1.914062 9.578125 -1.4375 C 8.546875 -0.476562 7.257812 0 5.71875 0 Z M 3.921875 -10.21875 L 3.921875 -1.734375 L 5.765625 -1.734375 C 6.796875 -1.734375 7.597656 -2.101562 8.171875 -2.84375 C 8.742188 -3.582031 9.03125 -4.660156 9.03125 -6.078125 C 9.03125 -8.835938 7.863281 -10.21875 5.53125 -10.21875 Z M 3.921875 -10.21875 "/></g></g></g><g fill="#c1ff72" fill-opacity="1"><g transform="translate(205.757417, 247.719476)"><g><path d="M 9.15625 0 L 0.609375 0 L 0.609375 -1.453125 L 1.203125 -1.515625 C 1.554688 -1.546875 1.734375 -1.710938 1.734375 -2.015625 L 1.734375 -10.390625 L 0.703125 -10.4375 L 0.703125 -11.96875 L 8.953125 -11.96875 L 8.953125 -8.984375 L 7.109375 -8.859375 L 7.109375 -9.578125 C 7.109375 -9.773438 7.078125 -9.914062 7.015625 -10 C 6.960938 -10.09375 6.820312 -10.140625 6.59375 -10.140625 L 3.921875 -10.140625 L 3.921875 -7.0625 L 8.078125 -7.0625 L 8.078125 -5.21875 L 3.921875 -5.21875 L 3.921875 -1.859375 L 6.828125 -1.859375 C 7.035156 -1.859375 7.171875 -1.898438 7.234375 -1.984375 C 7.296875 -2.078125 7.328125 -2.226562 7.328125 -2.4375 L 7.328125 -3.328125 L 9.15625 -3.203125 Z M 9.15625 0 "/></g></g></g></svg>